@startuml
class PBRMasterNode1 {
    + m_Model : Model
    + m_SurfaceType : SurfaceType
    + m_AlphaMode : AlphaMode
    + m_TwoSided : bool
    + m_NormalDropOffSpace : NormalDropOffSpace
    + m_ShaderGUIOverride : string
    + m_OverrideEnabled : bool
}
enum SurfaceType {
    Opaque,
    Transparent,
}
enum AlphaMode {
    Alpha,
    Premultiply,
    Additive,
    Multiply,
}
enum Model {
    Specular,
    Metallic,
}
AbstractMaterialNode <|-- PBRMasterNode1
IMasterNode1 <|-- PBRMasterNode1
PBRMasterNode1 +-- SurfaceType
PBRMasterNode1 +-- AlphaMode
PBRMasterNode1 +-- Model
@enduml
