@startuml
class UnlitMasterNode1 {
    + m_SurfaceType : SurfaceType
    + m_AlphaMode : AlphaMode
    + m_TwoSided : bool
    + m_ShaderGUIOverride : string
    + m_OverrideEnabled : bool
}
enum SurfaceType {
    Opaque,
    Transparent,
}
enum AlphaMode {
    Alpha,
    Premultiply,
    Additive,
    Multiply,
}
AbstractMaterialNode <|-- UnlitMasterNode1
IMasterNode1 <|-- UnlitMasterNode1
UnlitMasterNode1 +-- SurfaceType
UnlitMasterNode1 +-- AlphaMode
@enduml
