@startuml
class Migration_1_6_to_1_7 {
    <<internal>> Migration_1_6_to_1_7(plugin:Plugin)
    + <<override>> @from : SemanticVersion <<get>>
    + <<override>> to : SemanticVersion <<get>>
    + <<override>> Run() : void
}
class DeprecatedSavedVersionLoader_1_6_1 {
    + DeprecatedSavedVersionLoader_1_6_1(plugin:Plugin)
    + <<override>> @from : SemanticVersion <<get>>
    + <<override>> Run(savedVersion:SemanticVersion) : bool
}
PluginMigration <|-- Migration_1_6_to_1_7
PluginDeprecatedSavedVersionLoader <|-- DeprecatedSavedVersionLoader_1_6_1
@enduml
