@startuml
class SearchWindowAdapter {
    <<readonly>> - m_DefaultItemTemplate : VisualTreeAsset
    + <<override>> HasDetailsPanel : bool <<get>>
    + SearchWindowAdapter(title:string)
    - GetFirstChildItem(item:SearcherItem) : SearcherItem
    - ComputeScoreForMatch(queryTerms:string[], matchItem:SearcherItem) : int
    + <<override>> OnSearchResultsFilter(searchResults:IEnumerable<SearcherItem>, searchQuery:string) : SearcherItem
}
class SearchNodeItem {
    + NodeGUID : NodeEntry
    + SearchNodeItem(name:string, nodeGUID:NodeEntry, synonyms:string[], help:string, children:List<SearchNodeItem>)
}
SearcherAdapter <|-- SearchWindowAdapter
SearcherItem <|-- SearchNodeItem
@enduml
