@startuml
class ShaderGraphProjectSettings {
    <<internal>> shaderVariantLimit : int = 128
    <<internal>> customInterpolatorErrorThreshold : int = 32
    <<internal>> customInterpolatorWarningThreshold : int = 16
    <<internal>> GetSerializedObject() : SerializedObject
    <<internal>> Save() : void
    - OnDisable() : void
}
class ShaderGraphProjectSettingsProvider {
    - {static} kMaxChannelThreshold : int = 32
    - {static} kMinChannelThreshold : int = 8
    - {static} kCustomInterpolatorHelpBox : string = "Unity uses these options to help ShaderGraph users maintain known compatibilities with target platform(s) when using Custom Interpolators."
    - {static} kCustomInterpolatorDocumentationURL : string
    - m_SerializedObject : SerializedObject
    - m_shaderVariantLimit : SerializedProperty
    - m_customInterpWarn : SerializedProperty
    - m_customInterpError : SerializedProperty
    + ShaderGraphProjectSettingsProvider(path:string, scopes:SettingsScope, keywords:IEnumerable<string>)
    + <<override>> OnActivate(searchContext:string, rootElement:VisualElement) : void
    - oldWarningThreshold : int
    - OnGUIHandler(searchContext:string) : void
    + {static} CreateShaderGraphProjectSettingsProvider() : SettingsProvider
}
class Styles {
    + {static} <<readonly>> shaderVariantLimitLabel : GUIContent
    + {static} <<readonly>> CustomInterpLabel : GUIContent
    + {static} <<readonly>> CustomInterpWarnThresholdLabel : GUIContent
    + {static} <<readonly>> CustomInterpErrorThresholdLabel : GUIContent
    + {static} <<readonly>> ReadMore : GUIContent
}
"ScriptableSingleton`1" "<ShaderGraphProjectSettings>" <|-- ShaderGraphProjectSettings
SettingsProvider <|-- ShaderGraphProjectSettingsProvider
ShaderGraphProjectSettingsProvider +-- Styles
@enduml
