@startuml
class KeepFrameFeature {
    - m_CopyFrame : CopyFramePass
    - m_DrawOldFrame : DrawOldFramePass
    - m_OldFrameHandle : RTHandle
    + settings : Settings
    + <<override>> Create() : void
    + <<override>> AddRenderPasses(renderer:ScriptableRenderer, renderingData:RenderingData) : void
    + <<override>> SetupRenderPasses(renderer:ScriptableRenderer, renderingData:RenderingData) : void
    # <<override>> Dispose(disposing:bool) : void
}
class CopyFramePass {
    - source : RTHandle <<get>> <<set>>
    - destination : RTHandle <<get>> <<set>>
    + Setup(source:RTHandle, destination:RTHandle) : void
    + <<override>> Execute(context:ScriptableRenderContext, renderingData:RenderingData) : void
}
class DrawOldFramePass {
    - m_DrawOldFrameMaterial : Material
    - m_Handle : RTHandle
    - m_TextureName : string
    + Setup(drawOldFrameMaterial:Material, handle:RTHandle, textureName:string) : void
    + <<override>> Execute(context:ScriptableRenderContext, renderingData:RenderingData) : void
}
class Settings {
    + displayMaterial : Material
    + textureName : string
}
ScriptableRendererFeature <|-- KeepFrameFeature
KeepFrameFeature +-- CopyFramePass
ScriptableRenderPass <|-- CopyFramePass
KeepFrameFeature +-- DrawOldFramePass
ScriptableRenderPass <|-- DrawOldFramePass
KeepFrameFeature +-- Settings
@enduml
